Coordinates
version=1
nRows=27
nColumns=19
inDegrees=yes

Units are S.I. units (second, meters, Newtons, ...)
If the header above contains a line with 'inDegrees', this indicates whether rotational values are in degrees (yes) or radians (no).

endheader
time	pelvis_tilt	pelvis_list	pelvis_rotation	pelvis_tx	pelvis_ty	pelvis_tz	hip_flexion_r	hip_adduction_r	hip_rotation_r	knee_angle_r	knee_angle_r_beta	ankle_angle_r	hip_flexion_l	hip_adduction_l	hip_rotation_l	knee_angle_l	knee_angle_l_beta	ankle_angle_l
     15.33333333	     -1.13731012	     -3.41365490	      2.32793317	      2.33024794	      1.07440824	      1.06192828	     22.77323394	      3.95238331	     -5.81895831	     17.69573399	      0.30884882	     -6.95408059	    -14.03537197	     -8.15057584	    -12.80669150	     38.45345741	      0.67113944	    -17.30509299
     15.34000000	     -0.86744997	     -4.30167220	      2.91034542	      2.33041305	      1.07163373	      1.06173240	     22.36566231	      4.70987473	     -7.04027364	     17.75991557	      0.30996900	     -7.22048613	    -13.22361622	     -9.37295499	    -11.06770752	     41.41051459	      0.72274982	    -16.05488298
     15.34666667	     -0.57240458	     -4.68511042	      2.99699895	      2.33009372	      1.06852986	      1.06207039	     22.09562733	      5.14557158	     -7.45930871	     18.42761256	      0.32162251	     -7.04767783	    -12.50053074	     -9.84297968	     -9.59970017	     44.25756284	      0.77244019	    -15.12475815
     15.35333333	     -0.04591825	     -4.99178253	      2.69992024	      2.32955968	      1.06522008	      1.06265512	     21.64400583	      5.65193524	     -7.38556852	     19.48800159	      0.34012979	     -6.48977622	    -12.09900225	    -10.12199336	     -8.60750588	     47.06446057	      0.82142980	    -14.27635998
     15.36000000	     -0.27523678	     -5.34417973	      3.12922991	      2.32895526	      1.06077803	      1.06252635	     22.03218033	      5.87593027	     -8.00468794	     20.80732542	      0.36315634	     -5.57765711	    -10.44529297	    -10.51970555	     -6.67127063	     50.26877987	      0.87735572	    -13.45886676
     15.36666667	     -0.12896113	     -5.68557882	      3.19148060	      2.32812524	      1.05633489	      1.06261765	     22.04722870	      6.25754725	     -8.14487310	     22.39799645	      0.39091878	     -4.26140234	     -9.29443321	    -10.82151903	     -5.28682088	     53.36991487	      0.93148074	    -12.80582187
     15.37333333	     -0.05127114	     -6.00400898	      3.27208865	      2.32711846	      1.05150059	      1.06267076	     22.15340646	      6.61965331	     -8.19409685	     24.20161954	      0.42239795	     -2.53416763	     -7.97709030	    -11.07321413	     -3.91087528	     56.51740523	      0.98641481	    -12.30025033
     15.38000000	     -0.02422017	     -6.32525459	      3.32474611	      2.32591710	      1.04634315	      1.06270698	     22.32452799	      7.01047256	     -8.13248121	     26.16836288	      0.45672409	     -0.48622503	     -6.53678570	    -11.30789829	     -2.62784989	     59.68229880	      1.04165262	    -11.93461886
     15.38666667	      0.68004525	     -6.74407542	      3.11953228	      2.32460687	      1.04176098	      1.06295139	     21.69154690	      7.70606059	     -7.69615850	     28.10663068	      0.49055325	      1.83654620	     -5.95486474	    -11.69035604	     -1.89290324	     62.62593822	      1.09302882	    -11.70643616
     15.39333333	      0.03025767	     -7.05456655	      3.47429521	      2.32299249	      1.03560968	      1.06259984	     22.61798165	      7.92571806	     -7.92536007	     30.26490434	      0.52822223	      4.22952053	     -3.44605963	    -11.83021694	     -0.18363255	     65.93870808	      1.15084756	    -11.50321374
     15.40000000	      0.69702226	     -7.50030292	      3.26635349	      2.32126998	      1.03091485	      1.06272350	     21.99286413	      8.67156986	     -7.47300623	     32.23644184	      0.56263205	      6.72397186	     -2.69774923	    -12.22654068	      0.47627934	     68.79775749	      1.20074739	    -11.35517515
     15.40666667	      0.10619865	     -7.92710116	      3.47873657	      2.31938588	      1.02490827	      1.06237662	     22.77605733	      9.09120356	     -7.56386546	     34.26400664	      0.59801973	      9.07249648	     -0.20648166	    -12.47535284	      1.87532259	     71.90813922	      1.25503379	    -11.14017704
     15.41333333	      0.05308110	     -8.32493560	      3.45306202	      2.31732306	      1.01973207	      1.06220919	     22.89742619	      9.64048691	     -7.35684255	     36.15909903	      0.63109533	     11.34583227	      1.58566795	    -12.73001080	      2.84550587	     74.74356000	      1.30452122	    -10.86371758
     15.42000000	      0.01748620	     -8.75021407	      3.38657265	      2.31512740	      1.01484293	      1.06196199	     22.93676813	     10.22527101	     -7.13608437	     37.90833345	      0.66162523	     13.38518603	      3.37782339	    -12.99833203	      3.74814036	     77.44123612	      1.35160455	    -10.37824196
     15.42666667	      0.58885410	     -9.06859409	      3.18391285	      2.31293438	      1.01104139	      1.06192769	     22.19487383	     10.82966326	     -6.69183513	     39.46733261	      0.68883490	     15.37276182	      4.39136051	    -13.29496026	      4.22093736	     79.81471336	      1.39302954	     -9.86005286
     15.43333333	      1.09043030	     -9.33597138	      2.98097703	      2.31067833	      1.00761387	      1.06182503	     21.44048658	     11.35929978	     -6.23907805	     40.85438196	      0.71304348	     17.08111474	      5.50821336	    -13.50867406	      4.69950502	     82.02965750	      1.43168761	     -9.20895544
     15.44000000	      0.06271786	     -9.68436043	      3.08390930	      2.30852909	      1.00278298	      1.06141893	     22.35105564	     11.66631801	     -6.33614237	     42.15825502	      0.73580036	     18.43571603	      8.62968069	    -13.62819000	      5.84182373	     84.39579916	      1.47298457	     -8.33973156
     15.44666667	      0.02684153	     -9.77191973	      3.00176303	      2.30632002	      0.99965526	      1.06121875	     22.01386595	     11.87344985	     -6.08638034	     43.24967730	      0.75484927	     19.68826851	     10.44773713	    -13.60363523	      6.42832899	     86.31316655	      1.50644894	     -7.34766313
     15.45333333	      0.48191453	     -9.74152107	      2.83725748	      2.30422526	      0.99771104	      1.06123992	     20.94428390	     12.08110667	     -5.57537776	     44.01968390	      0.76828842	     20.83704136	     11.61400609	    -13.58322775	      6.68826579	     87.88650684	      1.53390891	     -6.30910564
     15.46000000	      0.84367654	     -9.64245714	      2.69090395	      2.30220058	      0.99623974	      1.06128253	     19.84992708	     12.19673297	     -5.06946334	     44.57246726	      0.77793631	     21.72353621	     12.88403307	    -13.48402923	      6.92297649	     89.24214599	      1.55756928	     -5.29070132
     15.46666667	      0.98955535	     -9.49358803	      2.59641704	      2.30056695	      0.99485128	      1.06136035	     18.86854601	     12.15827176	     -4.81675814	     44.97026740	      0.78487923	     22.72888215	     14.35843716	    -13.39876949	      7.07984969	     90.38476634	      1.57751177	     -3.95335511
     15.47333333	      1.04384432	     -9.26804316	      2.52747500	      2.29903828	      0.99401175	      1.06138742	     17.83135718	     12.03810366	     -4.51800995	     45.09320363	      0.78702487	     23.46436924	     15.92627965	    -13.20694632	      7.20959569	     91.29773863	      1.59344614	     -2.86772595
     15.48000000	      1.02609519	     -8.97147603	      2.47837611	      2.29768475	      0.99362952	      1.06153355	     16.74480440	     11.84853953	     -4.21996938	     45.00129974	      0.78542085	     24.11262705	     17.52461762	    -12.96774268	      7.25131888	     91.95465279	      1.60491145	     -1.86228804
     15.48666667	      0.89885429	     -8.61997088	      2.42907342	      2.29662793	      0.99366096	      1.06168142	     15.63787059	     11.56736841	     -3.99245512	     44.68807269	      0.77995400	     24.67426074	     19.17189853	    -12.69700855	      7.17985708	     92.35590884	      1.61191469	     -0.93586044
     15.49333333	      0.68079446	     -8.21428569	      2.40793220	      2.29567255	      0.99404748	      1.06188423	     14.54464995	     11.22011273	     -3.79983544	     44.22209738	      0.77182120	     25.08808454	     20.87688505	    -12.37783315	      7.03757760	     92.52955303	      1.61494536	     -0.16048222
     15.50000000	      0.39180279	     -7.77694033	      2.34700530	      2.29499560	      0.99489000	      1.06207626	     13.39884850	     10.84737591	     -3.56196443	     43.53499859	      0.75982907	     25.38238560	     22.54776418	    -12.02494294	      6.77527789	     92.44267843	      1.61342911	      0.50984575
     15.50666667	      0.07554089	     -7.30494664	      2.25300651	      2.29451113	      0.99618842	      1.06231907	     12.19873532	     10.44692213	     -3.28595825	     42.69164500	      0.74510977	     25.50495305	     24.14468766	    -11.68662084	      6.34740533	     92.10432821	      1.60752378	      1.07115830
